<svg width="236" height="58" viewBox="0 0 236 58" fill="none" xmlns="http://www.w3.org/2000/svg">
<path d="M2.064 21.224H5.808V28.112L12.144 21.224H16.776L10.104 28.64C10.68 29.44 11.744 30.936 13.296 33.128C14.848 35.304 16.008 36.928 16.776 38H12.408L7.488 31.376L5.808 33.248V38H2.064V21.224ZM34.2271 27.44L29.6911 36.608H27.4591L22.9471 27.44V38H19.2031V21.224H24.2671L28.5871 30.44L32.9311 21.224H37.9711V38H34.2271V27.44ZM52.8095 38H49.4255V36.44C48.4975 37.608 47.3455 38.192 45.9695 38.192C44.6095 38.192 43.4655 37.8 42.5375 37.016C41.6095 36.216 41.1455 35.16 41.1455 33.848C41.1455 32.52 41.6255 31.528 42.5855 30.872C43.5455 30.216 44.8575 29.888 46.5215 29.888H49.2095V29.816C49.2095 28.44 48.4815 27.752 47.0255 27.752C46.4015 27.752 45.7375 27.88 45.0335 28.136C44.3455 28.376 43.7615 28.68 43.2815 29.048L41.6735 26.72C43.3695 25.488 45.3055 24.872 47.4815 24.872C49.0495 24.872 50.3295 25.264 51.3215 26.048C52.3135 26.832 52.8095 28.072 52.8095 29.768V38ZM49.1855 33.08V32.456H46.9295C45.4895 32.456 44.7695 32.904 44.7695 33.8C44.7695 34.264 44.9375 34.624 45.2735 34.88C45.6255 35.12 46.1215 35.24 46.7615 35.24C47.4015 35.24 47.9615 35.048 48.4415 34.664C48.9375 34.264 49.1855 33.736 49.1855 33.08ZM62.9835 28.256C61.9115 28.256 61.1115 28.64 60.5835 29.408C60.0555 30.16 59.7915 31.16 59.7915 32.408V38H56.1915V25.088H59.7915V26.792C60.2555 26.264 60.8315 25.816 61.5195 25.448C62.2235 25.08 62.9355 24.888 63.6555 24.872L63.6795 28.256H62.9835ZM69.7587 38H66.1587V20.192H69.7587V29.336L73.7667 25.064H78.3027L73.3827 30.296L78.4947 38H74.2227L70.9347 33.056L69.7587 34.28V38ZM91.7161 36.128C90.2601 37.504 88.5481 38.192 86.5801 38.192C84.6281 38.192 83.0121 37.592 81.7321 36.392C80.4521 35.176 79.8121 33.552 79.8121 31.52C79.8121 29.488 80.4601 27.872 81.7561 26.672C83.0681 25.472 84.6121 24.872 86.3881 24.872C88.1641 24.872 89.6681 25.408 90.9001 26.48C92.1481 27.552 92.7721 29.024 92.7721 30.896V32.816H83.3641C83.4761 33.52 83.8441 34.096 84.4681 34.544C85.0921 34.992 85.7961 35.216 86.5801 35.216C87.8441 35.216 88.8841 34.792 89.7001 33.944L91.7161 36.128ZM89.1241 30.248C89.0441 29.48 88.7561 28.888 88.2601 28.472C87.7641 28.056 87.1561 27.848 86.4361 27.848C85.7321 27.848 85.0841 28.064 84.4921 28.496C83.9001 28.928 83.5561 29.512 83.4601 30.248H89.1241ZM99.6234 27.68V33.464C99.6234 33.96 99.7514 34.352 100.007 34.64C100.263 34.912 100.567 35.048 100.919 35.048C101.591 35.048 102.159 34.744 102.623 34.136L103.967 36.656C102.847 37.68 101.663 38.192 100.415 38.192C99.1834 38.192 98.1354 37.784 97.2714 36.968C96.4234 36.152 95.9994 35.04 95.9994 33.632V27.68H94.4874V25.088H95.9994V21.224H99.6234V25.088H102.743V27.68H99.6234ZM117.182 36.128C115.726 37.504 114.014 38.192 112.046 38.192C110.094 38.192 108.478 37.592 107.198 36.392C105.918 35.176 105.278 33.552 105.278 31.52C105.278 29.488 105.926 27.872 107.222 26.672C108.534 25.472 110.078 24.872 111.854 24.872C113.63 24.872 115.134 25.408 116.366 26.48C117.614 27.552 118.238 29.024 118.238 30.896V32.816H108.83C108.942 33.52 109.31 34.096 109.934 34.544C110.558 34.992 111.262 35.216 112.046 35.216C113.31 35.216 114.35 34.792 115.166 33.944L117.182 36.128ZM114.59 30.248C114.51 29.48 114.222 28.888 113.726 28.472C113.23 28.056 112.622 27.848 111.902 27.848C111.198 27.848 110.55 28.064 109.958 28.496C109.366 28.928 109.022 29.512 108.926 30.248H114.59ZM127.726 28.256C126.654 28.256 125.854 28.64 125.326 29.408C124.798 30.16 124.534 31.16 124.534 32.408V38H120.934V25.088H124.534V26.792C124.998 26.264 125.574 25.816 126.262 25.448C126.966 25.08 127.678 24.888 128.398 24.872L128.422 28.256H127.726Z" fill="white"/>
</svg>
